<svg width="60" height="60" viewBox="0 0 60 60" fill="none" xmlns="http://www.w3.org/2000/svg">
<path d="M30 8C17.9 8 8 17.9 8 30C8 42.1 17.9 52 30 52C42.1 52 52 42.1 52 30C52 17.9 42.21 8 30 8ZM38.25 40.23C33.08 37.04 26.59 36.38 18.89 38.14C18.12 38.36 17.46 37.81 17.24 37.15C17.02 36.38 17.57 35.72 18.23 35.5C26.59 33.63 33.85 34.4 39.57 37.92C40.34 38.25 40.45 39.13 40.12 39.79C39.68 40.45 38.91 40.67 38.25 40.23ZM40.45 34.29C34.51 30.66 25.49 29.56 18.56 31.76C17.68 31.98 16.69 31.54 16.47 30.66C16.25 29.78 16.69 28.79 17.57 28.57C25.6 26.15 35.5 27.36 42.32 31.54C42.98 31.87 43.31 32.97 42.76 33.74C42.21 34.51 41.22 34.84 40.45 34.29ZM17.46 25.05C16.36 25.38 15.26 24.72 14.93 23.73C14.6 22.63 15.26 21.53 16.25 21.2C24.06 18.89 36.93 19.33 45.07 24.17C46.06 24.72 46.39 26.04 45.84 27.03C45.29 27.8 43.97 28.13 42.98 27.58C35.94 23.4 24.17 22.96 17.46 25.05Z" fill="#9CA3AF"/>
</svg>
