<svg width="60" height="60" viewBox="0 0 60 60" fill="none" xmlns="http://www.w3.org/2000/svg">
<path d="M48.6301 18.3694C47.2304 18.9885 45.7462 19.3951 44.2264 19.5758C45.8283 18.6177 47.0272 17.11 47.5997 15.3334C46.0964 16.2281 44.4482 16.8551 42.7304 17.1943C41.5765 15.9597 40.0471 15.1409 38.3798 14.8652C36.7126 14.5895 35.001 14.8723 33.511 15.6698C32.0211 16.4672 30.8364 17.7345 30.1411 19.2747C29.4458 20.8149 29.2788 22.5417 29.6661 24.1866C26.6174 24.0338 23.635 23.2416 20.9124 21.8613C18.1898 20.4811 15.788 18.5437 13.8627 16.1749C13.1813 17.3454 12.8231 18.676 12.8251 20.0304C12.8251 22.6888 14.1781 25.0373 16.2351 26.4123C15.0177 26.374 13.8272 26.0452 12.7627 25.4534V25.5488C12.7631 27.3192 13.3757 29.0351 14.4968 30.4054C15.6178 31.7757 17.1783 32.7161 18.9136 33.0673C17.7835 33.3735 16.5986 33.4186 15.4486 33.1993C15.9378 34.7232 16.8914 36.056 18.1758 37.011C19.4602 37.966 21.0111 38.4954 22.6114 38.5251C21.0209 39.7742 19.1999 40.6976 17.2523 41.2424C15.3048 41.7873 13.269 41.9429 11.2612 41.7004C14.766 43.9544 18.8459 45.151 23.0129 45.1471C37.1167 45.1471 44.8296 33.4633 44.8296 23.3304C44.8296 23.0004 44.8204 22.6668 44.8057 22.3404C46.307 21.2554 47.6027 19.9113 48.6319 18.3713L48.6301 18.3694Z" fill="#9CA3AF"/>
</svg>
