<svg width="60" height="60" viewBox="0 0 60 60" fill="none" xmlns="http://www.w3.org/2000/svg">
<path d="M30 8C35.9774 8 36.7232 8.022 39.0684 8.132C41.4114 8.242 43.0064 8.6094 44.41 9.155C45.862 9.7138 47.0852 10.4706 48.3084 11.6916C49.4271 12.7914 50.2927 14.1217 50.845 15.59C51.3884 16.9914 51.758 18.5886 51.868 20.9316C51.9714 23.2768 52 24.0226 52 30C52 35.9774 51.978 36.7232 51.868 39.0684C51.758 41.4114 51.3884 43.0064 50.845 44.41C50.2943 45.8791 49.4285 47.2098 48.3084 48.3084C47.2083 49.4267 45.8781 50.2923 44.41 50.845C43.0086 51.3884 41.4114 51.758 39.0684 51.868C36.7232 51.9714 35.9774 52 30 52C24.0226 52 23.2768 51.978 20.9316 51.868C18.5886 51.758 16.9936 51.3884 15.59 50.845C14.1211 50.2938 12.7906 49.4281 11.6916 48.3084C10.5727 47.2088 9.70705 45.8784 9.155 44.41C8.6094 43.0086 8.242 41.4114 8.132 39.0684C8.0286 36.7232 8 35.9774 8 30C8 24.0226 8.022 23.2768 8.132 20.9316C8.242 18.5864 8.6094 16.9936 9.155 15.59C9.70552 14.1208 10.5714 12.7901 11.6916 11.6916C12.7909 10.5723 14.1213 9.7066 15.59 9.155C16.9936 8.6094 18.5864 8.242 20.9316 8.132C23.2768 8.0286 24.0226 8 30 8ZM30 19C27.0826 19 24.2847 20.1589 22.2218 22.2218C20.1589 24.2847 19 27.0826 19 30C19 32.9174 20.1589 35.7153 22.2218 37.7782C24.2847 39.8411 27.0826 41 30 41C32.9174 41 35.7153 39.8411 37.7782 37.7782C39.8411 35.7153 41 32.9174 41 30C41 27.0826 39.8411 24.2847 37.7782 22.2218C35.7153 20.1589 32.9174 19 30 19ZM44.3 18.45C44.3 17.7207 44.0103 17.0212 43.4945 16.5055C42.9788 15.9897 42.2793 15.7 41.55 15.7C40.8207 15.7 40.1212 15.9897 39.6055 16.5055C39.0897 17.0212 38.8 17.7207 38.8 18.45C38.8 19.1793 39.0897 19.8788 39.6055 20.3945C40.1212 20.9103 40.8207 21.2 41.55 21.2C42.2793 21.2 42.9788 20.9103 43.4945 20.3945C44.0103 19.8788 44.3 19.1793 44.3 18.45ZM30 23.4C31.7504 23.4 33.4292 24.0954 34.6669 25.3331C35.9046 26.5708 36.6 28.2496 36.6 30C36.6 31.7504 35.9046 33.4292 34.6669 34.6669C33.4292 35.9046 31.7504 36.6 30 36.6C28.2496 36.6 26.5708 35.9046 25.3331 34.6669C24.0954 33.4292 23.4 31.7504 23.4 30C23.4 28.2496 24.0954 26.5708 25.3331 25.3331C26.5708 24.0954 28.2496 23.4 30 23.4Z" fill="#9CA3AF"/>
</svg>
