<svg width="60" height="60" viewBox="0 0 60 60" fill="none" xmlns="http://www.w3.org/2000/svg">
<mask id="mask0" style="mask-type:alpha" maskUnits="userSpaceOnUse" x="0" y="0" width="60" height="60">
<circle cx="30" cy="30" r="30" fill="#FFFBFB"/>
</mask>
<g mask="url(#mask0)">
<path d="M30.0104 -2C16.6507 -2 12.7435 -1.98621 11.9841 -1.92319C9.24241 -1.69524 7.53639 -1.26345 5.67779 -0.337829C4.24544 0.373616 3.11581 1.1983 2.00094 2.35434C-0.029444 4.46258 -1.25998 7.05627 -1.70544 10.1394C-1.92201 11.6361 -1.98501 11.9414 -1.99781 19.5866C-2.00273 22.135 -1.99781 25.4889 -1.99781 29.9874C-1.99781 43.34 -1.98305 47.2443 -1.91906 48.0025C-1.69756 50.671 -1.27918 52.35 -0.393191 54.1864C1.30003 57.7018 4.53388 60.3408 8.34363 61.3255C9.66276 61.6652 11.1197 61.8523 12.9901 61.9409C13.7826 61.9754 21.8599 62 29.942 62C38.0242 62 46.1064 61.9902 46.8791 61.9508C49.0449 61.8489 50.3025 61.68 51.693 61.3206C55.5274 60.3309 58.7022 57.7313 60.4298 54.1667C61.2986 52.3746 61.7391 50.6317 61.9385 48.1025C61.9818 47.551 62 38.7591 62 29.9791C62 21.1975 61.9803 12.4219 61.937 11.8705C61.7352 9.3004 61.2947 7.57226 60.3978 5.74564C59.662 4.25038 58.8449 3.13373 57.6587 1.99197C55.5416 -0.0306026 52.9526 -1.26148 49.8674 -1.70656C48.3725 -1.9227 48.0747 -1.98671 40.4257 -2H30.0104Z" fill="url(#paint0_radial)"/>
<path d="M30.0104 -2C16.6507 -2 12.7435 -1.98621 11.9841 -1.92319C9.24241 -1.69524 7.53639 -1.26345 5.67779 -0.337829C4.24544 0.373616 3.11581 1.1983 2.00094 2.35434C-0.029444 4.46258 -1.25998 7.05627 -1.70544 10.1394C-1.92201 11.6361 -1.98501 11.9414 -1.99781 19.5866C-2.00273 22.135 -1.99781 25.4889 -1.99781 29.9874C-1.99781 43.34 -1.98305 47.2443 -1.91906 48.0025C-1.69756 50.671 -1.27918 52.35 -0.393191 54.1864C1.30003 57.7018 4.53388 60.3408 8.34363 61.3255C9.66276 61.6652 11.1197 61.8523 12.9901 61.9409C13.7826 61.9754 21.8599 62 29.942 62C38.0242 62 46.1064 61.9902 46.8791 61.9508C49.0449 61.8489 50.3025 61.68 51.693 61.3206C55.5274 60.3309 58.7022 57.7313 60.4298 54.1667C61.2986 52.3746 61.7391 50.6317 61.9385 48.1025C61.9818 47.551 62 38.7591 62 29.9791C62 21.1975 61.9803 12.4219 61.937 11.8705C61.7352 9.3004 61.2947 7.57226 60.3978 5.74564C59.662 4.25038 58.8449 3.13373 57.6587 1.99197C55.5416 -0.0306026 52.9526 -1.26148 49.8674 -1.70656C48.3725 -1.9227 48.0747 -1.98671 40.4257 -2H30.0104Z" fill="url(#paint1_radial)"/>
<path d="M29.5017 11C24.4774 11 23.8468 11.022 21.8735 11.1118C19.904 11.202 18.5596 11.5138 17.3833 11.9713C16.1666 12.4438 15.1344 13.0759 14.1061 14.1045C13.077 15.1328 12.4449 16.165 11.9709 17.3813C11.5122 18.558 11.2 19.9027 11.1114 21.8714C11.0231 23.8448 11 24.4757 11 29.5C11 34.5243 11.0224 35.1529 11.1118 37.1262C11.2023 39.0957 11.5142 40.44 11.9713 41.6163C12.4442 42.8331 13.0763 43.8653 14.1049 44.8935C15.1329 45.9226 16.165 46.5562 17.381 47.0288C18.5581 47.4862 19.9028 47.798 21.8719 47.8882C23.8453 47.978 24.4755 48 29.4994 48C34.5242 48 35.1528 47.978 37.1261 47.8882C39.0956 47.798 40.4415 47.4862 41.6186 47.0288C42.835 46.5562 43.8656 45.9226 44.8935 44.8935C45.9226 43.8653 46.5547 42.8331 47.0287 41.6167C47.4835 40.4401 47.7957 39.0953 47.8882 37.1266C47.9769 35.1533 48 34.5243 48 29.5C48 24.4757 47.9769 23.8452 47.8882 21.8718C47.7957 19.9024 47.4835 18.558 47.0287 17.3817C46.5547 16.165 45.9226 15.1328 44.8935 14.1045C43.8644 13.0755 42.8354 12.4434 41.6174 11.9713C40.438 11.5138 39.0929 11.202 37.1234 11.1118C35.1501 11.022 34.5218 11 29.496 11H29.5017ZM27.8421 14.3339C28.3347 14.3331 28.8843 14.3339 29.5017 14.3339C34.4413 14.3339 35.0267 14.3516 36.9774 14.4402C38.7811 14.5227 39.7601 14.8241 40.4122 15.0773C41.2756 15.4126 41.8911 15.8135 42.5382 16.461C43.1857 17.1085 43.5865 17.7251 43.9226 18.5885C44.1759 19.2398 44.4776 20.2188 44.5597 22.0225C44.6484 23.9727 44.6677 24.5586 44.6677 29.4958C44.6677 34.4329 44.6484 35.0188 44.5597 36.969C44.4773 38.7727 44.1759 39.7517 43.9226 40.4031C43.5873 41.2664 43.1857 41.8811 42.5382 42.5282C41.8907 43.1757 41.2759 43.5766 40.4122 43.9119C39.7609 44.1663 38.7811 44.4669 36.9774 44.5494C35.0271 44.638 34.4413 44.6573 29.5017 44.6573C24.5618 44.6573 23.9763 44.638 22.0261 44.5494C20.2223 44.4661 19.2434 44.1647 18.5909 43.9115C17.7275 43.5762 17.1108 43.1754 16.4633 42.5279C15.8158 41.8804 15.415 41.2652 15.0789 40.4015C14.8257 39.7502 14.5239 38.7712 14.4418 36.9674C14.3532 35.0172 14.3354 34.4314 14.3354 29.4911C14.3354 24.5509 14.3532 23.9681 14.4418 22.0179C14.5243 20.2142 14.8257 19.2352 15.0789 18.5831C15.4142 17.7197 15.8158 17.1031 16.4633 16.4556C17.1108 15.8081 17.7275 15.4072 18.5909 15.0712C19.243 14.8168 20.2223 14.5162 22.0261 14.4333C23.7328 14.3562 24.3941 14.3331 27.8421 14.3292V14.3339ZM39.377 17.4056C38.1513 17.4056 37.157 18.3988 37.157 19.6249C37.157 20.8505 38.1513 21.8449 39.377 21.8449C40.6026 21.8449 41.597 20.8505 41.597 19.6249C41.597 18.3992 40.6026 17.4049 39.377 17.4049V17.4056ZM29.5017 19.9995C24.255 19.9995 20.0011 24.2533 20.0011 29.5C20.0011 34.7467 24.255 38.9986 29.5017 38.9986C34.7485 38.9986 39.0008 34.7467 39.0008 29.5C39.0008 24.2533 34.7481 19.9995 29.5013 19.9995H29.5017ZM29.5017 23.3333C32.9073 23.3333 35.6685 26.0941 35.6685 29.5C35.6685 32.9055 32.9073 35.6667 29.5017 35.6667C26.0958 35.6667 23.335 32.9055 23.335 29.5C23.335 26.0941 26.0958 23.3333 29.5017 23.3333V23.3333Z" fill="white"/>
</g>
<defs>
<radialGradient id="paint0_radial" cx="0" cy="0" r="1" gradientUnits="userSpaceOnUse" gradientTransform="translate(15.0001 66.9293) rotate(-90) scale(63.4287 58.9937)">
<stop stop-color="#FFDD55"/>
<stop offset="0.1" stop-color="#FFDD55"/>
<stop offset="0.5" stop-color="#FF543E"/>
<stop offset="1" stop-color="#C837AB"/>
</radialGradient>
<radialGradient id="paint1_radial" cx="0" cy="0" r="1" gradientUnits="userSpaceOnUse" gradientTransform="translate(-12.7203 2.61045) rotate(78.6806) scale(28.3529 116.872)">
<stop stop-color="#3771C8"/>
<stop offset="0.128" stop-color="#3771C8"/>
<stop offset="1" stop-color="#6600FF" stop-opacity="0"/>
</radialGradient>
</defs>
</svg>
