<svg width="60" height="60" viewBox="0 0 60 60" fill="none" xmlns="http://www.w3.org/2000/svg">
<circle cx="30" cy="30" r="30" fill="#2DAAE1"/>
<path d="M48 17.6676C46.6391 18.2902 45.1773 18.711 43.6404 18.9002C45.209 17.9319 46.4106 16.3974 46.978 14.5712C45.488 15.4835 43.8573 16.1258 42.1568 16.4702C40.773 14.9494 38.7996 14 36.6164 14C32.4258 14 29.0273 17.5023 29.0273 21.8251C29.0273 22.4376 29.0942 23.0351 29.2228 23.6088C22.9145 23.282 17.3218 20.1667 13.5782 15.433C12.9246 16.5891 12.5504 17.9333 12.5504 19.3675C12.5504 22.082 13.8906 24.477 15.9269 25.8799C14.7214 25.8414 13.5424 25.5059 12.4884 24.9016V25.0005C12.4884 28.7922 15.1043 31.9538 18.5769 32.6728C17.939 32.853 17.2695 32.9472 16.577 32.9472C16.0873 32.9472 15.6122 32.8994 15.1481 32.8094C16.1141 35.9172 18.9172 38.1794 22.2377 38.2433C19.64 40.3427 16.3667 41.5941 12.8116 41.5941C12.1993 41.5941 11.5941 41.5565 11 41.4826C14.3596 43.7035 18.3485 45 22.6351 45C36.5957 45 44.2309 33.0763 44.2309 22.7359C44.2309 22.3964 44.2237 22.0594 44.2078 21.7237C45.6954 20.6144 46.9795 19.2409 48 17.6676V17.6676Z" fill="white"/>
</svg>
