<svg width="60" height="60" viewBox="0 0 60 60" fill="none" xmlns="http://www.w3.org/2000/svg">
<circle cx="30" cy="30" r="30" fill="white"/>
<path d="M29.9998 0C13.4317 0 0 13.4317 0 30.0002C0 46.5694 13.4317 60 29.9998 60C46.5697 60 60 46.5694 60 30.0002C60 13.4328 46.5697 0.00143297 29.9995 0.00143297L29.9998 0V0ZM43.7575 43.2689C43.2202 44.1502 42.0667 44.4296 41.1854 43.8886C34.1418 39.5861 25.2747 38.6117 14.8321 40.9976C13.8258 41.2269 12.8227 40.5964 12.5935 39.5897C12.3631 38.583 12.9911 37.5799 13.9999 37.3507C25.4276 34.7387 35.2301 35.8639 43.1378 40.6967C44.0191 41.2376 44.2985 42.3876 43.7575 43.2689V43.2689ZM47.4295 35.0991C46.7524 36.2007 45.3123 36.5482 44.2125 35.8711C36.1486 30.9133 23.8564 29.4779 14.3184 32.3732C13.0814 32.7468 11.7749 32.0497 11.3995 30.8148C11.0269 29.5778 11.7244 28.2738 12.9592 27.8976C23.8543 24.5918 37.3988 26.1931 46.6593 31.8838C47.759 32.5609 48.1065 34.0011 47.4295 35.0994V35.0991ZM47.7447 26.5929C38.0759 20.8499 22.1236 20.3218 12.8922 23.1237C11.4098 23.5733 9.8422 22.7364 9.39297 21.254C8.94374 19.7708 9.77986 18.2042 11.2633 17.7536C21.8603 14.5365 39.4766 15.1581 50.6085 21.7666C51.9447 22.558 52.3817 24.2801 51.59 25.6117C50.8019 26.9451 49.0752 27.3846 47.7462 26.5929H47.7447Z" fill="#1ED760"/>
</svg>
